<?xml version="1.0" standalone="no"?>
<!DOCTYPE svg PUBLIC "-//W3C//DTD SVG 20010904//EN"
 "http://www.w3.org/TR/2001/REC-SVG-20010904/DTD/svg10.dtd">
<svg version="1.0" xmlns="http://www.w3.org/2000/svg"
 width="300.000000pt" height="300.000000pt" viewBox="0 0 300.000000 300.000000"
 preserveAspectRatio="xMidYMid meet">
<metadata>
Created by potrace 1.10, written by Peter Selinger 2001-2011
</metadata>
<g transform="translate(0.000000,300.000000) scale(0.100000,-0.100000)"
fill="#000000" stroke="none">
<path d="M1089 2141 c-35 -35 -39 -82 -9 -108 11 -10 29 -26 40 -36 25 -22 29
-5 -82 -347 -48 -151 -93 -307 -99 -346 -29 -190 59 -376 213 -453 l61 -31
397 0 397 0 21 23 c21 22 22 31 22 233 0 276 22 254 -246 254 -197 0 -201 0
-222 -23 -13 -13 -22 -36 -22 -54 0 -45 36 -141 75 -199 18 -29 31 -55 28 -58
-4 -3 -78 -6 -165 -6 -118 0 -160 3 -163 13 -3 6 74 255 170 551 96 296 175
546 175 556 0 9 -10 26 -23 38 -23 21 -30 22 -281 22 l-258 0 -29 -29z m558
-23 c-11 -31 -377 -1158 -377 -1163 0 -3 117 -5 259 -5 l260 0 -60 57 c-67 64
-115 150 -128 231 l-8 52 208 0 209 0 0 -215 0 -215 -393 0 -394 0 -62 31
c-137 69 -213 244 -181 420 6 35 52 188 101 339 104 320 110 349 80 379 -11
11 -32 21 -46 21 -28 0 -29 4 -14 49 l11 31 270 0 c212 0 269 -3 265 -12z"/>
</g>
</svg>
